HIERARCHY
ROOT SpineBase
{
  OFFSET 0.000000 0.000000 0.000000
  CHANNELS 6 Xposition Yposition Zposition Zrotation Xrotation Yrotation
  JOINT SpineMid
  {
    OFFSET 0.000000 30.729464 -0.000000
    CHANNELS 3 Zrotation Xrotation Yrotation
    JOINT SpineShoulder
    {
      OFFSET -0.059655 22.832643 -0.656932
      CHANNELS 3 Zrotation Xrotation Yrotation
      JOINT Neck
      {
        OFFSET -0.088912 7.547615 -0.548288
        CHANNELS 3 Zrotation Xrotation Yrotation
        JOINT Head
        {
          OFFSET -1.566401 11.833082 1.146183
          CHANNELS 3 Zrotation Xrotation Yrotation
          End Site
          {
            OFFSET 0 0 0
          }
        }
      }
      JOINT ShoulderLeft
      {
        OFFSET -16.179743 -3.835464 3.390263
        CHANNELS 3 Zrotation Xrotation Yrotation
        JOINT ElbowLeft
        {
          OFFSET -3.208285 -25.949759 -0.969260
          CHANNELS 3 Zrotation Xrotation Yrotation
          JOINT WristLeft
          {
            OFFSET 0.997374 -19.716852 -8.922821
            CHANNELS 3 Zrotation Xrotation Yrotation
            JOINT HandLeft
            {
              OFFSET 1.035994 -3.994987 -0.749735
              CHANNELS 3 Zrotation Xrotation Yrotation
              JOINT HandTipLeft
              {
                OFFSET -0.743230 -5.877977 -1.125156
                CHANNELS 3 Zrotation Xrotation Yrotation
                End Site
                {
                  OFFSET 0 0 0
                }
              }
              JOINT ThumbLeft
              {
                OFFSET -3.674790 -1.064161 -1.161507
                CHANNELS 3 Zrotation Xrotation Yrotation
                End Site
                {
                  OFFSET 0 0 0
                }
              }
            }
          }
        }
      }
      JOINT ShoulderRight
      {
        OFFSET 15.404798 -2.969977 -4.158444
        CHANNELS 3 Zrotation Xrotation Yrotation
        JOINT ElbowRight
        {
          OFFSET 10.788885 -25.018503 3.909427
          CHANNELS 3 Zrotation Xrotation Yrotation
          JOINT WristRight
          {
            OFFSET 2.303704 -21.501910 -1.954612
            CHANNELS 3 Zrotation Xrotation Yrotation
            JOINT HandRight
            {
              OFFSET -0.860378 -4.568336 -0.635608
              CHANNELS 3 Zrotation Xrotation Yrotation
              JOINT HandTipRight
              {
                OFFSET 0.255675 -5.840043 -0.471155
                CHANNELS 3 Zrotation Xrotation Yrotation
                End Site
                {
                  OFFSET 0 0 0
                }
              }
              JOINT ThumbRight
              {
                OFFSET -2.756699 -0.155241 -0.778088
                CHANNELS 3 Zrotation Xrotation Yrotation
                End Site
                {
                  OFFSET 0 0 0
                }
              }
            }
          }
        }
      }
    }
  }
  JOINT HipLeft
  {
    OFFSET -7.625795 0.621656 -1.838286
    CHANNELS 3 Zrotation Xrotation Yrotation
    JOINT KneeLeft
    {
      OFFSET -4.537095 -31.412767 0.236982
      CHANNELS 3 Zrotation Xrotation Yrotation
      JOINT AnkleLeft
      {
        OFFSET -3.135543 -31.920251 0.449330
        CHANNELS 3 Zrotation Xrotation Yrotation
        JOINT FootLeft
        {
          OFFSET -5.966394 -7.288561 -8.979086
          CHANNELS 3 Zrotation Xrotation Yrotation
          End Site
          {
            OFFSET 0 0 0
          }
        }
      }
    }
  }
  JOINT HipRight
  {
    OFFSET 6.134035 0.721524 -4.988135
    CHANNELS 3 Zrotation Xrotation Yrotation
    JOINT KneeRight
    {
      OFFSET 6.150282 -25.916403 2.974241
      CHANNELS 3 Zrotation Xrotation Yrotation
      JOINT AnkleRight
      {
        OFFSET 3.373344 -33.734580 6.131679
        CHANNELS 3 Zrotation Xrotation Yrotation
        JOINT FootRight
        {
          OFFSET 1.731658 -8.925330 -8.846162
          CHANNELS 3 Zrotation Xrotation Yrotation
          End Site
          {
            OFFSET 0 0 0
          }
        }
      }
    }
  }
}
MOTION
Frames: 10
Frame Time: 0.033333
87.842907 70.536481 391.612153 -1.757159 -0.154502 17.115716 0.024566 -0.185810 -17.169920 -0.088041 0.109204 -0.079821 -4.946751 0.262858 0.819847 0.000000 0.000000 0.000000 0.206054 -1.924903 0.427207 -7.915759 -4.928846 3.469861 17.126500 5.658494 -6.723756 15.600363 -2.640576 -2.219993 0.000000 0.000000 0.000000 0.000000 0.000000 0.000000 -12.374249 10.570988 4.003087 3.341776 2.447876 0.401414 15.797532 -12.558540 -0.865573 -10.950983 13.409550 2.558429 0.000000 0.000000 0.000000 0.000000 0.000000 0.000000 2.273648 0.337173 -17.230906 -0.118674 -2.736307 0.311626 4.274214 8.830925 -11.239751 0.000000 0.000000 0.000000 2.761877 0.502735 -16.759321 -1.095300 -2.754133 -0.597830 -0.835327 -1.330270 0.840425 0.000000 0.000000 0.000000
88.172902 70.527502 391.655917 -2.665142 -0.279789 14.735662 -0.396510 -0.104405 -14.834579 -0.196424 0.130208 -0.145296 -8.012423 -1.114239 1.067999 0.000000 0.000000 0.000000 -0.342471 -2.292713 0.626871 -5.541275 -5.531179 3.054755 14.727246 6.442152 -6.226279 19.550446 -3.018447 -2.706717 0.000000 0.000000 0.000000 0.000000 0.000000 0.000000 -11.700422 10.301962 3.865945 4.515546 3.292789 0.874355 14.075905 -10.768396 -1.474035 -10.889473 10.914946 2.682822 0.000000 0.000000 0.000000 0.000000 0.000000 0.000000 2.648655 -0.407372 -14.732753 0.429634 -2.128041 0.223114 1.465135 4.935719 -4.854089 0.000000 0.000000 0.000000 2.973962 1.307643 -14.335188 -0.174510 -3.209929 -0.606973 1.440149 -0.967990 -1.471643 0.000000 0.000000 0.000000
88.481511 70.460479 391.713057 -3.999251 -0.386442 12.277543 -0.806809 -0.083987 -12.436866 -0.313579 0.143371 -0.228284 -11.182599 -2.276984 1.352955 0.000000 0.000000 0.000000 -0.258556 -2.331074 0.815492 -2.340184 -6.038762 2.223569 12.422351 3.565973 -6.216895 18.657489 2.203866 -3.439273 0.000000 0.000000 0.000000 0.000000 0.000000 0.000000 -10.890883 9.879163 3.637043 5.258922 4.768937 1.604809 12.643280 -8.129038 -2.312008 -13.618612 7.307067 3.053812 0.000000 0.000000 0.000000 0.000000 0.000000 0.000000 3.367382 0.074252 -12.340261 0.849177 -2.293533 0.256561 2.085214 3.687091 -4.451606 0.000000 0.000000 0.000000 3.353444 2.022723 -11.849529 1.221148 -3.726821 -0.513015 0.215318 -1.288405 -0.723487 0.000000 0.000000 0.000000
88.721061 70.356437 391.768509 -5.736980 -0.490270 9.942302 -1.134817 -0.082429 -10.175911 -0.381009 0.161005 -0.320736 -14.376367 -2.809735 1.802867 0.000000 0.000000 0.000000 -0.879039 -2.397727 1.038629 1.134958 -6.226005 1.678155 10.830114 0.351147 -6.523430 17.327767 6.599142 -3.585797 0.000000 0.000000 0.000000 0.000000 0.000000 0.000000 -10.380879 9.561908 3.460132 7.001144 5.509875 2.253751 10.392691 -5.557813 -2.991635 -11.676241 2.741773 2.620067 0.000000 0.000000 0.000000 0.000000 0.000000 0.000000 4.481238 -0.301262 -9.958020 0.788923 -0.962328 0.092567 0.081033 4.266415 -2.186874 0.000000 0.000000 0.000000 4.070754 2.479100 -9.526973 2.762393 -4.052639 -0.322637 -0.121408 -1.855859 -1.130333 0.000000 0.000000 0.000000
88.836593 70.214159 391.792133 -7.749714 -0.543432 7.956427 -1.295369 -0.056113 -8.266004 -0.383208 0.197106 -0.410953 -16.636348 -3.127548 2.229573 0.000000 0.000000 0.000000 -2.034938 -2.577660 1.257866 4.890350 -6.299374 1.242727 9.814209 -2.776536 -7.006325 15.509841 8.717509 -2.729849 0.000000 0.000000 0.000000 0.000000 0.000000 0.000000 -9.517173 8.855832 3.082055 8.221327 6.267575 2.916582 8.648317 -4.741597 -3.208759 -10.772651 0.186492 2.267016 0.000000 0.000000 0.000000 0.000000 0.000000 0.000000 5.997767 -0.748016 -7.924159 0.692209 -0.217523 -0.005592 3.566754 4.737611 -6.479430 0.000000 0.000000 0.000000 5.304845 2.638281 -7.571234 4.019839 -4.443878 -0.143963 -0.326754 -3.178566 -1.875466 0.000000 0.000000 0.000000
89.002050 70.018022 391.849606 -9.657992 -0.460118 5.966759 -1.268582 -0.014940 -6.329885 -0.321891 0.246212 -0.481223 -17.787998 -3.029631 2.653191 0.000000 0.000000 0.000000 -3.852998 -2.979678 1.413141 9.090233 -6.063137 0.753651 7.999090 -5.338641 -7.068146 14.552421 10.915133 -2.221890 0.000000 0.000000 0.000000 0.000000 0.000000 0.000000 -9.195733 8.256271 2.787480 9.757122 6.323751 3.378105 7.849726 -5.512722 -3.028617 -10.859348 0.132635 2.063806 0.000000 0.000000 0.000000 0.000000 0.000000 0.000000 7.343782 -1.190452 -5.884522 0.794626 0.191646 -0.066411 4.208957 3.150142 -5.540177 0.000000 0.000000 0.000000 6.513035 2.733423 -5.596150 5.003821 -4.801584 -0.010942 -0.760379 -3.200006 -1.913367 0.000000 0.000000 0.000000
89.215140 69.819112 391.937981 -11.215657 -0.264109 4.191813 -1.042562 0.039478 -4.573532 -0.207661 0.304060 -0.521316 -18.827478 -3.113409 2.891298 0.000000 0.000000 0.000000 -6.336151 -3.236753 1.471659 13.866547 -5.776170 0.119522 4.777621 -6.732669 -6.303937 16.842910 11.404162 -2.822575 0.000000 0.000000 0.000000 0.000000 0.000000 0.000000 -9.609685 7.671922 2.481492 12.109230 5.810114 3.653123 7.322447 -7.020343 -2.614502 -10.215984 2.923666 2.167668 0.000000 0.000000 0.000000 0.000000 0.000000 0.000000 8.310536 -1.569315 -4.062179 0.922627 0.209222 -0.088543 8.707156 1.851074 -9.719651 0.000000 0.000000 0.000000 7.724397 2.736653 -3.799472 5.413834 -5.003182 0.038484 -0.931016 -2.510652 -1.797709 0.000000 0.000000 0.000000
89.598972 69.602354 391.962662 -12.075136 0.055183 2.796740 -0.678842 0.070199 -3.155320 -0.088312 0.326368 -0.528185 -19.654934 -3.232036 2.947635 0.000000 0.000000 0.000000 -9.306205 -3.701266 1.405589 18.181244 -5.287486 -0.463799 2.502834 -6.377165 -5.268863 17.695947 10.414624 -2.949065 0.000000 0.000000 0.000000 0.000000 0.000000 0.000000 -10.006769 7.082468 2.182527 13.090952 5.132034 3.733255 8.634258 -8.290470 -2.131840 -10.621146 3.560272 2.024373 0.000000 0.000000 0.000000 0.000000 0.000000 0.000000 8.375963 -2.059879 -2.607660 1.534867 0.276143 -0.118934 12.356229 3.060664 -15.397837 0.000000 0.000000 0.000000 8.082756 2.425606 -2.449340 5.799239 -4.811685 0.119088 -0.909176 -2.085864 -1.693217 0.000000 0.000000 0.000000
90.072728 69.403805 391.941508 -12.549040 0.473550 1.703629 -0.545326 0.049372 -2.027156 -0.141989 0.292359 -0.547349 -20.731294 -3.195454 3.089490 0.000000 0.000000 0.000000 -12.885950 -4.226898 1.289495 22.664037 -5.285753 -0.958375 2.129579 -3.867783 -4.268657 15.947649 5.440624 -1.544447 0.000000 0.000000 0.000000 0.000000 0.000000 0.000000 -10.580300 6.842514 2.089261 14.475172 3.899565 3.659653 8.987647 -9.904541 -1.562125 -9.865346 3.084208 1.531605 0.000000 0.000000 0.000000 0.000000 0.000000 0.000000 8.050506 -2.644444 -1.450929 2.298099 0.325696 -0.150472 14.908027 2.482508 -18.512584 0.000000 0.000000 0.000000 8.228822 2.033750 -1.363364 5.875471 -4.619077 0.136130 0.309540 -2.464957 -2.781148 0.000000 0.000000 0.000000
90.675414 69.232730 391.873305 -12.606021 0.839382 0.718610 -0.247014 -0.004580 -0.997866 -0.057277 0.277587 -0.529933 -21.231106 -2.760426 3.248946 0.000000 0.000000 0.000000 -15.779167 -4.506931 1.122884 25.688092 -5.128830 -1.276801 1.872431 -2.141694 -3.497906 15.922727 3.029211 -1.417236 0.000000 0.000000 0.000000 0.000000 0.000000 0.000000 -11.065464 6.732555 2.080562 14.957244 2.622743 3.402439 8.938489 -7.633521 -1.750156 -8.878999 1.073423 1.394602 0.000000 0.000000 0.000000 0.000000 0.000000 0.000000 7.518986 -3.229268 -0.411353 2.924145 0.474394 -0.194415 15.715539 -0.728969 -17.086107 0.000000 0.000000 0.000000 8.011317 1.700926 -0.391474 5.455110 -4.390514 0.039108 2.466357 -2.168372 -4.113704 0.000000 0.000000 0.000000
